<svg width="800" height="800" viewBox="0 0 800 800" fill="none" xmlns="http://www.w3.org/2000/svg">
<path d="M683.333 283.333V183.333C683.333 174.493 679.82 166.014 673.57 159.763C667.32 153.512 658.84 150 650 150H150C141.159 150 132.681 153.512 126.43 159.763C120.179 166.014 116.667 174.493 116.667 183.333V283.333C116.667 292.174 120.179 300.652 126.43 306.904C132.681 313.155 141.159 316.667 150 316.667C141.159 316.667 132.681 320.179 126.43 326.43C120.179 332.681 116.667 341.16 116.667 350V450C116.667 458.84 120.179 467.32 126.43 473.57C132.681 479.82 141.159 483.333 150 483.333C141.159 483.333 132.681 486.847 126.43 493.097C120.179 499.347 116.667 507.827 116.667 516.667V616.667C116.667 625.507 120.179 633.987 126.43 640.237C132.681 646.487 141.159 650 150 650H650C658.84 650 667.32 646.487 673.57 640.237C679.82 633.987 683.333 625.507 683.333 616.667V516.667C683.333 507.827 679.82 499.347 673.57 493.097C667.32 486.847 658.84 483.333 650 483.333C658.84 483.333 667.32 479.82 673.57 473.57C679.82 467.32 683.333 458.84 683.333 450V350C683.333 341.16 679.82 332.681 673.57 326.43C667.32 320.179 658.84 316.667 650 316.667C658.84 316.667 667.32 313.155 673.57 306.904C679.82 300.652 683.333 292.174 683.333 283.333ZM650 616.667H150V516.667H650V616.667ZM650 450H150V350H650V450ZM650 283.333H150V183.333H650V283.333Z" fill="#D8DEE9"/>
<path d="M208.333 258.333C222.14 258.333 233.333 247.14 233.333 233.333C233.333 219.526 222.14 208.333 208.333 208.333C194.526 208.333 183.333 219.526 183.333 233.333C183.333 247.14 194.526 258.333 208.333 258.333Z" fill="#D8DEE9"/>
<path d="M291.667 258.333C305.474 258.333 316.667 247.14 316.667 233.333C316.667 219.526 305.474 208.333 291.667 208.333C277.86 208.333 266.667 219.526 266.667 233.333C266.667 247.14 277.86 258.333 291.667 258.333Z" fill="#D8DEE9"/>
<path d="M208.333 425C222.14 425 233.333 413.807 233.333 400C233.333 386.193 222.14 375 208.333 375C194.526 375 183.333 386.193 183.333 400C183.333 413.807 194.526 425 208.333 425Z" fill="#D8DEE9"/>
<path d="M291.667 425C305.474 425 316.667 413.807 316.667 400C316.667 386.193 305.474 375 291.667 375C277.86 375 266.667 386.193 266.667 400C266.667 413.807 277.86 425 291.667 425Z" fill="#D8DEE9"/>
<path d="M208.333 591.667C222.14 591.667 233.333 580.473 233.333 566.667C233.333 552.86 222.14 541.667 208.333 541.667C194.526 541.667 183.333 552.86 183.333 566.667C183.333 580.473 194.526 591.667 208.333 591.667Z" fill="#D8DEE9"/>
<path d="M291.667 591.667C305.474 591.667 316.667 580.473 316.667 566.667C316.667 552.86 305.474 541.667 291.667 541.667C277.86 541.667 266.667 552.86 266.667 566.667C266.667 580.473 277.86 591.667 291.667 591.667Z" fill="#D8DEE9"/>
</svg>
