<svg width="800" height="800" viewBox="0 0 800 800" fill="none" xmlns="http://www.w3.org/2000/svg">
<path fill-rule="evenodd" clip-rule="evenodd" d="M647.217 500.488C641.582 501.123 636.331 503.654 632.324 507.666L587.5 552.49L567.676 532.666C562.988 527.979 556.63 525.345 550 525.345C543.371 525.345 537.013 527.979 532.324 532.666C527.637 537.354 525.004 543.712 525.004 550.342C525.004 556.971 527.637 563.329 532.324 568.017L569.824 605.517C574.513 610.204 580.871 612.837 587.5 612.837C594.129 612.837 600.487 610.204 605.176 605.517L667.676 543.017C672.363 538.329 674.996 531.971 674.996 525.342C674.996 518.712 672.363 512.354 667.676 507.666C665.023 505.01 661.807 502.986 658.265 501.744C654.723 500.501 650.947 500.072 647.217 500.488Z" fill="#D8DEE9"/>
<path fill-rule="evenodd" clip-rule="evenodd" d="M350 425.342C343.37 425.342 337.011 427.975 332.322 432.664C327.634 437.352 325 443.711 325 450.342C325 456.972 327.634 463.331 332.322 468.019C337.011 472.708 343.37 475.342 350 475.342H425C431.63 475.342 437.989 472.708 442.678 468.019C447.366 463.331 450 456.972 450 450.342C450 443.711 447.366 437.352 442.678 432.664C437.989 427.975 431.63 425.342 425 425.342H350Z" fill="#D8DEE9"/>
<path fill-rule="evenodd" clip-rule="evenodd" d="M175 350.342C168.37 350.342 162.011 352.976 157.323 357.664C152.635 362.353 150.001 368.712 150 375.342V475.342C150.001 481.972 152.635 488.33 157.323 493.018C162.011 497.707 168.37 500.341 175 500.342H275C281.63 500.341 287.989 497.707 292.677 493.018C297.365 488.33 299.999 481.972 300 475.342V375.342C299.999 368.712 297.365 362.353 292.677 357.664C287.989 352.976 281.63 350.342 275 350.342H175ZM200 400.342H250V450.342H200V400.342Z" fill="#D8DEE9"/>
<path fill-rule="evenodd" clip-rule="evenodd" d="M100 125.342C72.7325 125.342 50 148.074 50 175.342V550.342C50 577.609 72.7325 600.342 100 600.342H458.643C479.338 658.468 534.97 700.342 600 700.342C682.547 700.342 750 632.888 750 550.342C750 506.142 730.641 466.276 700 438.77V175.342C700 148.074 677.268 125.342 650 125.342H100ZM100 175.342H650V225.342H100V175.342ZM100 275.342H650V408.984C648.178 408.334 646.336 407.71 644.482 407.13C630.411 402.732 615.477 400.343 600 400.343C520.033 400.343 454.23 463.624 450.195 542.628C450.07 545.176 449.995 547.763 449.995 550.343H99.9952L100 275.342ZM350 350.342C343.37 350.342 337.011 352.975 332.322 357.664C327.634 362.352 325 368.711 325 375.342C325 381.972 327.634 388.331 332.322 393.019C337.011 397.708 343.37 400.342 350 400.342H475C481.63 400.342 487.989 397.708 492.678 393.019C497.366 388.331 500 381.972 500 375.342C500 368.711 497.366 362.352 492.678 357.664C487.989 352.975 481.63 350.342 475 350.342H350ZM600 450.342C655.524 450.342 700 494.817 700 550.342C700 605.866 655.524 650.342 600 650.342C552.491 650.342 513.077 617.767 502.686 573.584C502.536 571.37 502.093 569.187 501.368 567.09C501.293 566.6 501.193 566.118 501.118 565.625C500.868 563.965 500.703 562.283 500.533 560.596C500.193 557.22 499.995 553.812 499.995 550.342C499.995 548.607 500.045 546.879 500.145 545.166C500.32 541.741 500.618 538.381 501.123 535.059C501.376 533.399 501.671 531.759 502.003 530.127C511.275 484.417 551.416 450.342 600 450.342Z" fill="#D8DEE9"/>
</svg>
