<svg width="800" height="800" viewBox="0 0 800 800" fill="none" xmlns="http://www.w3.org/2000/svg">
<path d="M300 66.6667C300 48.2573 314.924 33.3333 333.333 33.3333H466.667C485.077 33.3333 500 48.2573 500 66.6667V100C500 118.409 485.077 133.333 466.667 133.333H333.333C314.924 133.333 300 118.409 300 100V66.6667Z" fill="#D8DEE9"/>
<path d="M550 58.3333H250C217.783 58.3333 191.667 84.4501 191.667 116.667V683.333C191.667 715.55 217.783 741.667 250 741.667H550C582.217 741.667 608.333 715.55 608.333 683.333V116.667C608.333 84.4501 582.217 58.3333 550 58.3333Z" stroke="#D8DEE9" stroke-width="50"/>
<path d="M300 650H500" stroke="#D8DEE9" stroke-width="50" stroke-linecap="round"/>
</svg>
